<?xml version="1.0" standalone="no"?>
<!DOCTYPE svg PUBLIC "-//W3C//DTD SVG 20010904//EN"
 "http://www.w3.org/TR/2001/REC-SVG-20010904/DTD/svg10.dtd">
<svg version="1.0" xmlns="http://www.w3.org/2000/svg"
 width="112.000000pt" height="120.000000pt" viewBox="0 0 112.000000 120.000000"
 preserveAspectRatio="xMidYMid meet">

<g transform="translate(0.000000,120.000000) scale(0.100000,-0.100000)"
fill="#000000" stroke="none">
<path d="M442 1000 c-118 -17 -221 -99 -262 -206 -27 -75 -27 -193 0 -268 27
-72 88 -139 157 -173 81 -39 212 -45 297 -13 70 27 133 81 168 147 25 45 48
138 48 190 l0 23 -190 0 -190 0 0 -55 0 -55 105 0 c91 0 105 -2 105 -17 0 -26
-50 -84 -86 -99 -42 -18 -135 -18 -177 0 -29 12 -96 77 -97 94 -1 4 -5 27 -10
52 -18 92 25 186 104 227 69 36 203 9 238 -47 11 -17 24 -20 95 -20 l82 0 -11
33 c-7 17 -37 57 -67 88 -82 82 -187 116 -309 99z"/>
<path d="M840 30 c0 -13 7 -20 20 -20 13 0 20 7 20 20 0 13 -7 20 -20 20 -13
0 -20 -7 -20 -20z"/>
</g>
</svg>
